PathFileType	4	(X/Y/Z)	1_coords_data.trc
DataRate	CameraRate	NumFrames	NumMarkers	Units	OrigDataRate	OrigDataStartFrame	OrigNumFrames
30.0	30.0	7	21	m	30.0	11	61
Frame#	Time	THUMB_TIP	THUMB_IP	THUMB_MCP	THUMB_CMC	INDEX_TIP	INDEX_DIP	INDEX_PIP	INDEX_MCP	MIDDLE_TIP	MIDDLE_DIP	MIDDLE_PIP	MIDDLE_MCP	RING_TIP	RING_DIP	RING_PIP	RING_MCP	PINKY_TIP	PINKY_DIP	PINKY_PIP	PINKY_MCP	WRIST
X1	Y1	Z1	X2	Y2	Z2	X3	Y3	Z3	X4	Y4	Z4	X5	Y5	Z5	X6	Y6	Z6	X7	Y7	Z7	X8	Y8	Z8	X9	Y9	Z9	X10	Y10	Z10	X11	Y11	Z11	X12	Y12	Z12	X13	Y13	Z13	X14	Y14	Z14	X15	Y15	Z15	X16	Y16	Z16	X17	Y17	Z17	X18	Y18	Z18	X19	Y19	Z19	X20	Y20	Z20	X21	Y21	Z21
9	0.33333333333333187	0.469782699162913	-0.023354616387326277	-0.17003294739702868	0.4762879198504935	-0.026094798828244503	-0.14816576870391973	0.4745430745275031	-0.03519671071380792	-0.11845161862645204	0.47843960059333424	-0.03116440171295687	-0.07419726778114	0.508964231804812	-0.017003217769083534	-0.10459405699490787	0.5266855524657562	-0.013812736907951484	-0.10653715398341479	0.5371892102180822	0.0052712689163001425	-0.11908640609347815	0.49523495689310704	0.012160619081768465	-0.12153866550907416	0.5064437283224015	-0.01849345487158016	-0.08555043698116072	0.5236667639011668	-0.013006192878169065	-0.0844292763021115	0.5400157826262119	0.009033597984126063	-0.09424593334381459	0.5006453392180913	0.028660885887067278	-0.10204886077030262	0.5034193109194446	-0.007449102661430063	-0.07184421561495646	0.5207770613355447	-0.0035550565226526443	-0.0689210486403462	0.5369514069146304	0.014944042720990702	-0.0729650381633482	0.5048868150029671	0.03809344016372451	-0.08137266431921708	0.5025198957918501	-0.0075145625827482965	-0.054461076876216596	0.5190982753776578	-0.0050322813058435445	-0.05099760896511951	0.531336739551358	0.011979424859627885	-0.052275837038946005	0.5055731729296695	0.03652358047096782	-0.05816706027832119	0.46228308100186094	-0.023011742144276925	-0.051989820119430985
10	0.3666666666666651	0.470170286645994	-0.023357047849768775	-0.1701075332404095	0.4763588990519323	-0.02615281857193541	-0.14815565991355784	0.4745017629611703	-0.03524484756877855	-0.11844529043990515	0.47842982996221545	-0.0311870135247293	-0.07419606137875356	0.5089971263851887	-0.017029684686558633	-0.10463474410855178	0.5267108208687156	-0.013815630964005843	-0.10660829076693457	0.5371492946619882	0.005281851923145675	-0.11919138439458082	0.4951847197571946	0.012131584014089314	-0.12157711642946323	0.5064749807672835	-0.018479601008312585	-0.08563338477751192	0.523701934519063	-0.013001924873081938	-0.08452562641416228	0.5400190464602599	0.009051369146110488	-0.09436501820438503	0.5006146730287485	0.028639716443871643	-0.10209417893581585	0.5034415861054864	-0.007459530806916637	-0.07191401503367445	0.5208012376426403	-0.0035609473281454918	-0.06900823710553827	0.5369620004926703	0.014947056476685372	-0.07306576323182024	0.5048716581860511	0.03807670778337624	-0.08142937459742716	0.5025424157442298	-0.00755448657384139	-0.05452677921611215	0.5191219037296548	-0.00505904867427498	-0.05107810297289184	0.5313477300507908	0.011961192569556967	-0.05236362923368176	0.5055822035165156	0.03651139009585114	-0.058221008752844305	0.4622830810018609	-0.023011742144276925	-0.051989820119430985
11	0.39999999999999825	0.47045442481897054	-0.023405195609704776	-0.17016333453343407	0.47641776800503477	-0.026225647416728726	-0.1481523466035506	0.47447695904100434	-0.03529369241673708	-0.11843999529230353	0.4784222111972981	-0.03120440291769322	-0.07419519111354977	0.5090025530100206	-0.01704171206892169	-0.10467600253653486	0.5267108539501246	-0.01381037944727248	-0.10666963422342646	0.5370922964757165	0.005297039867043218	-0.11928478429129136	0.4951209271859438	0.012125880234662656	-0.12161012150879258	0.5064989372140332	-0.018480239482489447	-0.08567368032927702	0.5237206173618331	-0.012976028144147556	-0.08461661342990667	0.5400143154694821	0.00908664793904912	-0.09447375683074744	0.500574441366307	0.02863033932715231	-0.10213459090102295	0.5033944137786782	-0.0074505589013865725	-0.071986070349915	0.5207574619652907	-0.0035513560062679916	-0.06910149508619334	0.5369439934701988	0.014937876986336529	-0.07314184657904654	0.5048479522679407	0.038068815320984495	-0.08147999175058551	0.5025431236321194	-0.007569639336440281	-0.054573056036363754	0.5191296372816752	-0.005073135020216668	-0.05115910947085078	0.5313581540174325	0.011945438768678818	-0.05244111712886945	0.5055902446825796	0.03650076874997621	-0.0582664127454372	0.46228308100186094	-0.023011742144276925	-0.051989820119430985
12	0.43333333333333146	0.4706190821581081	-0.023509264968490595	-0.17020876265237883	0.47646434761896667	-0.026307620383150154	-0.14816330782229326	0.47446911330940794	-0.03532726821785881	-0.11843983236958427	0.4784180635794314	-0.031203426649075716	-0.07419856518067502	0.5089987781508345	-0.01701867285452896	-0.10472532775958587	0.5266995829361387	-0.013762754098753271	-0.106745353256539	0.5370062138763572	0.005372594520755225	-0.11937949845405854	0.4950223927779066	0.012143972088535682	-0.12164738421129168	0.5064938383585774	-0.01845034637359011	-0.085716313459959	0.5237119910156283	-0.012927123439260169	-0.08470180496015167	0.5399637613752958	0.009157465338205828	-0.09457907425418544	0.5004877804283431	0.028652377669473705	-0.10217797170526421	0.5033601077718782	-0.007389777981662959	-0.07207718367123772	0.5207222128540723	-0.0034802525451702593	-0.06920091560718833	0.536906516682424	0.015010428380238028	-0.07324356418285549	0.5047673949080048	0.03809826946412653	-0.08153508272014298	0.5025217890420455	-0.007546619118245945	-0.054660987004474415	0.5191043450216923	-0.00502790282960297	-0.05124413092919056	0.5313315067032638	0.011991440022228628	-0.052528850783679526	0.505540278160387	0.03653229790601875	-0.05831178045441976	0.46228308100186083	-0.023011742144276925	-0.051989820119430985
13	0.4666666666666647	0.4707020198085194	-0.02363347571769847	-0.17024028537160102	0.47649104822975197	-0.02640272844027025	-0.14817632404783393	0.4744572550311587	-0.03536100241839146	-0.11843690555052178	0.478418487274178	-0.031197468119212868	-0.07420045427720612	0.5089645252514491	-0.017010007787119696	-0.10475979692194659	0.526661799185639	-0.013747355080313994	-0.10679979511140991	0.5369309401075864	0.0054033975008567214	-0.11944112626362535	0.49494469081393344	0.012172922698252542	-0.12166924045573113	0.5064804537765061	-0.018419132302582075	-0.08575693288073072	0.5236959417730541	-0.012882623521402126	-0.08476999643058403	0.5399276691113093	0.009205029603578718	-0.09467333713193626	0.500424451391893	0.028669474359418246	-0.10220852798282165	0.5033281370593523	-0.007298548668653648	-0.0721763679808326	0.5206948518232904	-0.003417461064755045	-0.06928943581694658	0.5368828353255336	0.015069802888131978	-0.07333297890035606	0.5047058368318355	0.03812502888379021	-0.08156815687206243	0.5024733783977428	-0.00754252619741802	-0.05473434055494608	0.5190517929480416	-0.00500889844694119	-0.05130842441171468	0.5312875477602231	0.012004100836739973	-0.05259535041954988	0.505501593036238	0.03655561858568035	-0.05835651056278979	0.46228308100186094	-0.023011742144276925	-0.051989820119430985
14	0.4999999999999978	0.47073283081222306	-0.02376055465972049	-0.1702773355158057	0.4765029407690284	-0.02648843436843107	-0.14820326694245067	0.47445568050021253	-0.035378117952522325	-0.11844419687689806	0.478417232355363	-0.03116807464377469	-0.07421217632348642	0.5089542498522472	-0.016979593304776497	-0.1047889050977352	0.5266466218817859	-0.013703863348674794	-0.10685035245895935	0.5368595969607737	0.005469646772677361	-0.1195026835747019	0.4948650057017522	0.01219963115444389	-0.12169305094317939	0.5064576459996711	-0.018377841521088678	-0.08579397227062968	0.52366880647058	-0.012825488421135844	-0.08482066332786375	0.5398842266867527	0.009265943211479444	-0.09474227336023355	0.5003557628293199	0.028696225838685696	-0.10223310663154117	0.5033318741686019	-0.007178943512330838	-0.0722778448269854	0.5207040522369305	-0.0033586219524804894	-0.0693431263836547	0.5368598577796062	0.015153965378907674	-0.07339948393261164	0.5046372393509923	0.03815946884140342	-0.0815952454006541	0.5024604832480941	-0.007521280286503007	-0.05479648701445705	0.519034262223227	-0.0049753239957998074	-0.051357307308586786	0.53125443866492	0.012048654604103204	-0.05264705897613309	0.5054520175608992	0.0365886747046692	-0.05838342800493579	0.4622830810018609	-0.023011742144276925	-0.051989820119430985
15	0.533333333333331	0.4707251437639466	-0.023878798843797622	-0.1702874938580074	0.4765280259832449	-0.026566392235331304	-0.14821707474756146	0.47446967430717496	-0.03539852766594853	-0.11844163903097027	0.4784222300279984	-0.03115990924557621	-0.07421154274845843	0.508966031008345	-0.016955523877591805	-0.10481135667185215	0.5266599834318131	-0.01368917712579909	-0.10687412823775688	0.5368284514859583	0.005511211644821379	-0.11952154542423665	0.4948301824775154	0.012222872223704329	-0.12169757542594689	0.5064780770708992	-0.01833142998830317	-0.08581339215658446	0.5236863046542385	-0.012768178439236944	-0.08485051332629678	0.5398838241724764	0.009332287902235836	-0.09478123832227414	0.500326537395116	0.028719575907146133	-0.10223120796169727	0.5033124305380815	-0.007094563909987306	-0.07233088677467991	0.5206858027450797	-0.0032955277218934542	-0.06937567744222062	0.5368507936213578	0.01521111009092413	-0.07342257821133302	0.5046007576181796	0.03819104221538061	-0.08158215732726137	0.5024405497513593	-0.007504761779008606	-0.05479832666232587	0.5190135887509735	-0.004945187133408968	-0.051365695608619366	0.5312327376474992	0.012080703285267669	-0.05263985207301303	0.5054202638857571	0.036614364828316925	-0.05835816481284106	0.46228308100186094	-0.023011742144276925	-0.051989820119430985
